<mxfile modified="2022-05-06T02:46:35.187Z" host="app.diagrams.net" agent="5.0 (Windows NT 10.0; Win64; x64) AppleWebKit/537.36 (KHTML, like Gecko) Chrome/100.0.4896.127 Safari/537.36 Edg/100.0.1185.50" etag="cR5Ybs0Pb2PXuOexxTI5" compressed="false" version="17.5.0" type="google">
  <diagram name="Development/Patterns/Service/Command" id="iLvXuIPMu1a3-xHcW6wZ">
    <mxGraphModel grid="1" page="1" gridSize="10" guides="1" tooltips="1" connect="1" arrows="1" fold="1" pageScale="1" pageWidth="850" pageHeight="1100" math="0" shadow="0">
      <root>
        <mxCell id="okaG6ugdYpA1KFKm-hnj-0" />
        <mxCell id="okaG6ugdYpA1KFKm-hnj-1" parent="okaG6ugdYpA1KFKm-hnj-0" />
        <mxCell id="okaG6ugdYpA1KFKm-hnj-2" value="The Abstract Product Factory Pattern&amp;nbsp;&lt;br style=&quot;padding: 0px ; margin: 0px&quot;&gt;protects the Consumer from&amp;nbsp;&lt;br style=&quot;padding: 0px ; margin: 0px&quot;&gt;having to concern itself with the complexity&amp;nbsp;&lt;br style=&quot;padding: 0px ; margin: 0px&quot;&gt;required to instantiate Product.&lt;br style=&quot;padding: 0px ; margin: 0px&quot;&gt;&lt;br style=&quot;padding: 0px ; margin: 0px&quot;&gt;The Consumer requests Factory to Create a&amp;nbsp;&lt;br style=&quot;padding: 0px ; margin: 0px&quot;&gt;concrete implementation of IProduct.&lt;br style=&quot;padding: 0px ; margin: 0px&quot;&gt;Factory protects Consumer from having&amp;nbsp;&lt;br style=&quot;padding: 0px ; margin: 0px&quot;&gt;to know that Product requires the instantiation&amp;nbsp;&lt;br style=&quot;padding: 0px ; margin: 0px&quot;&gt;of Required first -- it handles it internally.&lt;br style=&quot;padding: 0px ; margin: 0px&quot;&gt;&lt;br style=&quot;padding: 0px ; margin: 0px&quot;&gt;As Consumer requested IProduct, it does not&lt;br style=&quot;padding: 0px ; margin: 0px&quot;&gt;need to concern itself with what concrete&amp;nbsp;&lt;br style=&quot;padding: 0px ; margin: 0px&quot;&gt;implementation of Product is returned.&lt;br style=&quot;padding: 0px ; margin: 0px&quot;&gt;It can be a Mock for testing purposes.&lt;div style=&quot;padding: 0px ; margin: 0px&quot;&gt;&lt;br style=&quot;padding: 0px ; margin: 0px ; font-size: 9px ; font-style: italic ; white-space: nowrap&quot;&gt;&lt;/div&gt;" style="shape=note;whiteSpace=wrap;html=1;size=14;verticalAlign=top;align=left;spacingTop=-6;fontFamily=Helvetica;fontSize=12;fontColor=#000000;strokeColor=#000000;fillColor=none;gradientColor=none;" vertex="1" parent="okaG6ugdYpA1KFKm-hnj-1">
          <mxGeometry x="120" y="200" width="260" height="220" as="geometry" />
        </mxCell>
        <mxCell id="okaG6ugdYpA1KFKm-hnj-3" value="" style="edgeStyle=elbowEdgeStyle;elbow=horizontal;strokeColor=#000000;endArrow=open;entryX=1;entryY=0.25;fontSize=12;entryDx=0;entryDy=0;exitX=0;exitY=0.5;exitDx=0;exitDy=0;" edge="1" parent="okaG6ugdYpA1KFKm-hnj-1" source="okaG6ugdYpA1KFKm-hnj-9" target="okaG6ugdYpA1KFKm-hnj-8">
          <mxGeometry x="-78.125" y="140" width="100" height="100" as="geometry">
            <mxPoint x="546.875" y="515" as="sourcePoint" />
            <mxPoint x="576.875" y="385.875" as="targetPoint" />
            <Array as="points">
              <mxPoint x="400" y="440" />
            </Array>
          </mxGeometry>
        </mxCell>
        <mxCell id="okaG6ugdYpA1KFKm-hnj-4" value="" style="edgeStyle=elbowEdgeStyle;elbow=horizontal;strokeColor=#000000;endArrow=open;exitX=1;exitY=0.5;entryX=0;entryY=0.5;fontSize=12;exitDx=0;exitDy=0;entryDx=0;entryDy=0;" edge="1" parent="okaG6ugdYpA1KFKm-hnj-1" source="okaG6ugdYpA1KFKm-hnj-8" target="okaG6ugdYpA1KFKm-hnj-10">
          <mxGeometry x="-78.125" y="140" width="100" height="100" as="geometry">
            <mxPoint x="340" y="455" as="sourcePoint" />
            <mxPoint x="576.875" y="385.875" as="targetPoint" />
            <Array as="points">
              <mxPoint x="440" y="510" />
            </Array>
          </mxGeometry>
        </mxCell>
        <mxCell id="okaG6ugdYpA1KFKm-hnj-5" value="" style="edgeStyle=elbowEdgeStyle;elbow=horizontal;strokeColor=#000000;endArrow=open;fontSize=12;exitX=0.5;exitY=1;exitDx=0;exitDy=0;entryX=0.5;entryY=0;entryDx=0;entryDy=0;" edge="1" parent="okaG6ugdYpA1KFKm-hnj-1" source="okaG6ugdYpA1KFKm-hnj-10" target="okaG6ugdYpA1KFKm-hnj-11">
          <mxGeometry x="-58.125" y="160" width="100" height="100" as="geometry">
            <mxPoint x="350" y="645" as="sourcePoint" />
            <mxPoint x="610" y="477.625" as="targetPoint" />
            <Array as="points" />
          </mxGeometry>
        </mxCell>
        <mxCell id="okaG6ugdYpA1KFKm-hnj-6" value="" style="elbow=horizontal;strokeColor=#000000;endArrow=open;exitX=1;exitY=0.75;entryX=0;entryY=0.75;fontSize=12;exitDx=0;exitDy=0;entryDx=0;entryDy=0;" edge="1" parent="okaG6ugdYpA1KFKm-hnj-1" source="okaG6ugdYpA1KFKm-hnj-8" target="okaG6ugdYpA1KFKm-hnj-11">
          <mxGeometry x="-68.125" y="150" width="100" height="100" as="geometry">
            <mxPoint x="350" y="667.5" as="sourcePoint" />
            <mxPoint x="610" y="590" as="targetPoint" />
          </mxGeometry>
        </mxCell>
        <mxCell id="okaG6ugdYpA1KFKm-hnj-7" value="" style="edgeStyle=elbowEdgeStyle;elbow=horizontal;strokeColor=#000000;endArrow=open;entryX=0.5;entryY=0;fontSize=12;exitX=0.5;exitY=1;exitDx=0;exitDy=0;entryDx=0;entryDy=0;" edge="1" parent="okaG6ugdYpA1KFKm-hnj-1" source="okaG6ugdYpA1KFKm-hnj-9" target="TGlm50zmPtfraJKfq1L5-2">
          <mxGeometry x="-68.125" y="190" width="100" height="100" as="geometry">
            <mxPoint x="350" y="647.5" as="sourcePoint" />
            <mxPoint x="610" y="630" as="targetPoint" />
            <Array as="points" />
          </mxGeometry>
        </mxCell>
        <mxCell id="TGlm50zmPtfraJKfq1L5-1" style="edgeStyle=none;rounded=0;orthogonalLoop=1;jettySize=auto;html=1;strokeColor=#000000;fontFamily=Comic Sans MS;fontSize=12;fontColor=#000000;endArrow=block;endFill=0;dashed=1;" edge="1" parent="okaG6ugdYpA1KFKm-hnj-1" source="okaG6ugdYpA1KFKm-hnj-8" target="TGlm50zmPtfraJKfq1L5-0">
          <mxGeometry relative="1" as="geometry" />
        </mxCell>
        <mxCell id="okaG6ugdYpA1KFKm-hnj-8" value="&lt;p style=&quot;margin: 0px ; margin-top: 4px ; text-align: center&quot;&gt;&lt;b&gt;ProductFactory&lt;/b&gt;&lt;/p&gt;&lt;hr size=&quot;1&quot;&gt;&lt;div style=&quot;height: 2px&quot;&gt;+ Create(): Product&lt;/div&gt;" style="verticalAlign=top;align=left;overflow=fill;fontSize=12;fontFamily=Helvetica;html=1;rounded=0;strokeColor=#000000;fillColor=none;container=0;" vertex="1" parent="okaG6ugdYpA1KFKm-hnj-1">
          <mxGeometry x="120" y="560" width="120" height="60" as="geometry" />
        </mxCell>
        <mxCell id="okaG6ugdYpA1KFKm-hnj-9" value="&lt;p style=&quot;margin: 0px ; margin-top: 4px ; text-align: center&quot;&gt;&lt;b&gt;Consumer&lt;/b&gt;&lt;/p&gt;&lt;hr size=&quot;1&quot;&gt;&lt;div style=&quot;height: 2px&quot;&gt;&lt;/div&gt;" style="verticalAlign=top;align=left;overflow=fill;fontSize=12;fontFamily=Helvetica;html=1;rounded=0;strokeColor=#000000;fillColor=none;" vertex="1" parent="okaG6ugdYpA1KFKm-hnj-1">
          <mxGeometry x="480" y="240" width="100" height="60" as="geometry" />
        </mxCell>
        <mxCell id="TGlm50zmPtfraJKfq1L5-4" style="edgeStyle=none;rounded=0;orthogonalLoop=1;jettySize=auto;html=1;endArrow=block;endFill=0;strokeColor=#000000;fontFamily=Comic Sans MS;fontSize=12;fontColor=#000000;dashed=1;" edge="1" parent="okaG6ugdYpA1KFKm-hnj-1" source="okaG6ugdYpA1KFKm-hnj-10" target="TGlm50zmPtfraJKfq1L5-2">
          <mxGeometry relative="1" as="geometry" />
        </mxCell>
        <mxCell id="okaG6ugdYpA1KFKm-hnj-10" value="&lt;p style=&quot;margin: 0px ; margin-top: 4px ; text-align: center&quot;&gt;&lt;b&gt;Product&lt;/b&gt;&lt;/p&gt;&lt;hr size=&quot;1&quot;&gt;&lt;div style=&quot;height: 2px&quot;&gt;&lt;/div&gt;" style="verticalAlign=top;align=left;overflow=fill;fontSize=12;fontFamily=Helvetica;html=1;rounded=0;strokeColor=#000000;fillColor=none;" vertex="1" parent="okaG6ugdYpA1KFKm-hnj-1">
          <mxGeometry x="480" y="460" width="100" height="60" as="geometry" />
        </mxCell>
        <mxCell id="okaG6ugdYpA1KFKm-hnj-11" value="&lt;p style=&quot;margin: 0px ; margin-top: 4px ; text-align: center&quot;&gt;&lt;b&gt;Required&lt;/b&gt;&lt;/p&gt;&lt;hr size=&quot;1&quot;&gt;&lt;div style=&quot;height: 2px&quot;&gt;&lt;/div&gt;" style="verticalAlign=top;align=left;overflow=fill;fontSize=12;fontFamily=Helvetica;html=1;rounded=0;strokeColor=#000000;fillColor=none;" vertex="1" parent="okaG6ugdYpA1KFKm-hnj-1">
          <mxGeometry x="480" y="560" width="100" height="60" as="geometry" />
        </mxCell>
        <mxCell id="okaG6ugdYpA1KFKm-hnj-12" value="&lt;font style=&quot;font-size: 12px&quot;&gt;Diagram: Base System Logical Module - Development - Patterns - Factory Pattern (Concrete)&lt;/font&gt;" style="text;strokeColor=none;fillColor=none;html=1;fontSize=12;fontStyle=2;verticalAlign=middle;align=left;shadow=0;glass=0;comic=0;opacity=30;fontColor=#808080;" vertex="1" parent="okaG6ugdYpA1KFKm-hnj-1">
          <mxGeometry x="120" y="640" width="520" height="20" as="geometry" />
        </mxCell>
        <mxCell id="okaG6ugdYpA1KFKm-hnj-13" value="" style="group;fontSize=10;" vertex="1" connectable="0" parent="okaG6ugdYpA1KFKm-hnj-1">
          <mxGeometry x="120" y="120" width="560" height="45" as="geometry" />
        </mxCell>
        <mxCell id="okaG6ugdYpA1KFKm-hnj-14" value="&lt;font style=&quot;font-size: 12px&quot;&gt;Base Logical Module - Development - Patterns - Factory Pattern (Abstract)&lt;/font&gt;" style="text;strokeColor=none;fillColor=none;html=1;fontSize=12;fontStyle=1;verticalAlign=middle;align=left;shadow=0;glass=0;comic=0;opacity=30;fontColor=#808080;" vertex="1" parent="okaG6ugdYpA1KFKm-hnj-13">
          <mxGeometry width="560" height="40" as="geometry" />
        </mxCell>
        <mxCell id="okaG6ugdYpA1KFKm-hnj-15" value="" style="line;strokeWidth=2;html=1;shadow=0;glass=0;comic=0;fillColor=none;fontSize=10;fontColor=#CCCCCC;labelBackgroundColor=none;strokeColor=#CCCCCC;" vertex="1" parent="okaG6ugdYpA1KFKm-hnj-13">
          <mxGeometry y="35" width="560" height="10" as="geometry" />
        </mxCell>
        <mxCell id="TGlm50zmPtfraJKfq1L5-0" value="&lt;p style=&quot;margin: 0px ; margin-top: 4px ; text-align: center&quot;&gt;&lt;b&gt;IFactory&lt;/b&gt;&lt;/p&gt;&lt;hr size=&quot;1&quot;&gt;&lt;div style=&quot;height: 2px&quot;&gt;+ Create&amp;lt;T&amp;gt;(): T&lt;/div&gt;" style="verticalAlign=top;align=left;overflow=fill;fontSize=12;fontFamily=Helvetica;html=1;rounded=0;strokeColor=#000000;fillColor=none;container=0;" vertex="1" parent="okaG6ugdYpA1KFKm-hnj-1">
          <mxGeometry x="120" y="450" width="120" height="50" as="geometry" />
        </mxCell>
        <mxCell id="TGlm50zmPtfraJKfq1L5-2" value="&lt;p style=&quot;margin: 0px ; margin-top: 4px ; text-align: center&quot;&gt;&lt;b&gt;IProduct&lt;/b&gt;&lt;/p&gt;&lt;hr size=&quot;1&quot;&gt;&lt;div style=&quot;height: 2px&quot;&gt;+ SomeMethod()&lt;/div&gt;" style="verticalAlign=top;align=left;overflow=fill;fontSize=12;fontFamily=Helvetica;html=1;rounded=0;strokeColor=#000000;fillColor=none;container=0;" vertex="1" parent="okaG6ugdYpA1KFKm-hnj-1">
          <mxGeometry x="480" y="360" width="100" height="60" as="geometry" />
        </mxCell>
      </root>
    </mxGraphModel>
  </diagram>
</mxfile>
